<?xml version="1.0" encoding="UTF-8" standalone="no"?>
<!DOCTYPE svg PUBLIC "-//W3C//DTD SVG 1.1//EN"
 "http://www.w3.org/Graphics/SVG/1.1/DTD/svg11.dtd">
<!-- Generated by graphviz version 2.38.0 (20140413.2041)
 -->
<!-- Title: controllers_diagram Pages: 1 -->
<svg width="557pt" height="602pt"
 viewBox="0.00 0.00 556.96 602.00" xmlns="http://www.w3.org/2000/svg" xmlns:xlink="http://www.w3.org/1999/xlink">
<g id="graph0" class="graph" transform="scale(1 1) rotate(0) translate(207.714 394.5)">
<title>controllers_diagram</title>
<polygon fill="none" stroke="none" points="-207.714,207.5 -207.714,-394.5 349.242,-394.5 349.242,207.5 -207.714,207.5"/>
<!-- _diagram_info -->
<g id="node1" class="node"><title>_diagram_info</title>
<text text-anchor="start" x="110.312" y="144.9" font-family="Times,serif" font-size="13.00">Controllers diagram</text>
<text text-anchor="start" x="110.312" y="157.9" font-family="Times,serif" font-size="13.00">Date: Mar 21 2016 &#45; 07:28</text>
<text text-anchor="start" x="110.312" y="170.9" font-family="Times,serif" font-size="13.00">Migration version: 20160317180537</text>
<text text-anchor="start" x="110.312" y="183.9" font-family="Times,serif" font-size="13.00">Generated by RailRoady 1.4.2</text>
<text text-anchor="start" x="110.312" y="196.9" font-family="Times,serif" font-size="13.00">http://railroady.prestonlee.com</text>
</g>
<!-- AnswersController -->
<g id="node2" class="node"><title>AnswersController</title>
<path fill="none" stroke="black" d="M113.731,101C113.731,101 212.269,101 212.269,101 218.269,101 224.269,95 224.269,89 224.269,89 224.269,-103 224.269,-103 224.269,-109 218.269,-115 212.269,-115 212.269,-115 113.731,-115 113.731,-115 107.731,-115 101.731,-109 101.731,-103 101.731,-103 101.731,89 101.731,89 101.731,95 107.731,101 113.731,101"/>
<text text-anchor="middle" x="163" y="-99.8" font-family="Times,serif" font-size="14.00">AnswersController</text>
<polyline fill="none" stroke="black" points="101.731,-93 224.269,-93 "/>
<text text-anchor="start" x="109.731" y="-77.8" font-family="Times,serif" font-size="14.00">create</text>
<text text-anchor="start" x="109.731" y="-63.8" font-family="Times,serif" font-size="14.00">destroy</text>
<text text-anchor="start" x="109.731" y="-49.8" font-family="Times,serif" font-size="14.00">downvote</text>
<text text-anchor="start" x="109.731" y="-35.8" font-family="Times,serif" font-size="14.00">edit</text>
<text text-anchor="start" x="109.731" y="-21.8" font-family="Times,serif" font-size="14.00">index</text>
<text text-anchor="start" x="109.731" y="-7.8" font-family="Times,serif" font-size="14.00">new</text>
<text text-anchor="start" x="109.731" y="6.2" font-family="Times,serif" font-size="14.00">show</text>
<text text-anchor="start" x="109.731" y="20.2" font-family="Times,serif" font-size="14.00">update</text>
<text text-anchor="start" x="109.731" y="34.2" font-family="Times,serif" font-size="14.00">upvote</text>
<polyline fill="none" stroke="black" points="101.731,41 224.269,41 "/>
<polyline fill="none" stroke="black" points="101.731,65 224.269,65 "/>
<text text-anchor="start" x="109.731" y="80.2" font-family="Times,serif" font-size="14.00">_layout</text>
<text text-anchor="start" x="109.731" y="94.2" font-family="Times,serif" font-size="14.00">set_answer</text>
</g>
<!-- ApplicationController -->
<g id="node3" class="node"><title>ApplicationController</title>
<path fill="none" stroke="black" d="M164.758,-154C164.758,-154 333.242,-154 333.242,-154 339.242,-154 345.242,-160 345.242,-166 345.242,-166 345.242,-232 345.242,-232 345.242,-238 339.242,-244 333.242,-244 333.242,-244 164.758,-244 164.758,-244 158.758,-244 152.758,-238 152.758,-232 152.758,-232 152.758,-166 152.758,-166 152.758,-160 158.758,-154 164.758,-154"/>
<text text-anchor="middle" x="249" y="-228.8" font-family="Times,serif" font-size="14.00">ApplicationController</text>
<polyline fill="none" stroke="black" points="152.758,-222 345.242,-222 "/>
<polyline fill="none" stroke="black" points="152.758,-198 345.242,-198 "/>
<text text-anchor="start" x="160.758" y="-182.8" font-family="Times,serif" font-size="14.00">configure_permitted_parameter</text>
<polyline fill="none" stroke="black" points="152.758,-176 345.242,-176 "/>
<text text-anchor="start" x="160.758" y="-160.8" font-family="Times,serif" font-size="14.00">_layout</text>
</g>
<!-- QuestionsController -->
<g id="node4" class="node"><title>QuestionsController</title>
<path fill="none" stroke="black" d="M-55.7725,118C-55.7725,118 49.7725,118 49.7725,118 55.7725,118 61.7725,112 61.7725,106 61.7725,106 61.7725,-86 61.7725,-86 61.7725,-92 55.7725,-98 49.7725,-98 49.7725,-98 -55.7725,-98 -55.7725,-98 -61.7725,-98 -67.7725,-92 -67.7725,-86 -67.7725,-86 -67.7725,106 -67.7725,106 -67.7725,112 -61.7725,118 -55.7725,118"/>
<text text-anchor="middle" x="-3" y="-82.8" font-family="Times,serif" font-size="14.00">QuestionsController</text>
<polyline fill="none" stroke="black" points="-67.7725,-76 61.7725,-76 "/>
<text text-anchor="start" x="-59.7725" y="-60.8" font-family="Times,serif" font-size="14.00">create</text>
<text text-anchor="start" x="-59.7725" y="-46.8" font-family="Times,serif" font-size="14.00">destroy</text>
<text text-anchor="start" x="-59.7725" y="-32.8" font-family="Times,serif" font-size="14.00">edit</text>
<text text-anchor="start" x="-59.7725" y="-18.8" font-family="Times,serif" font-size="14.00">new</text>
<text text-anchor="start" x="-59.7725" y="-4.8" font-family="Times,serif" font-size="14.00">show</text>
<text text-anchor="start" x="-59.7725" y="9.2" font-family="Times,serif" font-size="14.00">update</text>
<polyline fill="none" stroke="black" points="-67.7725,16 61.7725,16 "/>
<polyline fill="none" stroke="black" points="-67.7725,40 61.7725,40 "/>
<text text-anchor="start" x="-59.7725" y="55.2" font-family="Times,serif" font-size="14.00">_layout</text>
<text text-anchor="start" x="-59.7725" y="69.2" font-family="Times,serif" font-size="14.00">answer_params</text>
<text text-anchor="start" x="-59.7725" y="83.2" font-family="Times,serif" font-size="14.00">question_params</text>
<text text-anchor="start" x="-59.7725" y="97.2" font-family="Times,serif" font-size="14.00">set_question</text>
<text text-anchor="start" x="-59.7725" y="111.2" font-family="Times,serif" font-size="14.00">tag_params</text>
</g>
<!-- RoomsController -->
<g id="node5" class="node"><title>RoomsController</title>
<path fill="none" stroke="black" d="M-38.6104,-137C-38.6104,-137 50.6104,-137 50.6104,-137 56.6104,-137 62.6104,-143 62.6104,-149 62.6104,-149 62.6104,-313 62.6104,-313 62.6104,-319 56.6104,-325 50.6104,-325 50.6104,-325 -38.6104,-325 -38.6104,-325 -44.6104,-325 -50.6104,-319 -50.6104,-313 -50.6104,-313 -50.6104,-149 -50.6104,-149 -50.6104,-143 -44.6104,-137 -38.6104,-137"/>
<text text-anchor="middle" x="6" y="-309.8" font-family="Times,serif" font-size="14.00">RoomsController</text>
<polyline fill="none" stroke="black" points="-50.6104,-303 62.6104,-303 "/>
<text text-anchor="start" x="-42.6104" y="-287.8" font-family="Times,serif" font-size="14.00">create</text>
<text text-anchor="start" x="-42.6104" y="-273.8" font-family="Times,serif" font-size="14.00">destroy</text>
<text text-anchor="start" x="-42.6104" y="-259.8" font-family="Times,serif" font-size="14.00">edit</text>
<text text-anchor="start" x="-42.6104" y="-245.8" font-family="Times,serif" font-size="14.00">index</text>
<text text-anchor="start" x="-42.6104" y="-231.8" font-family="Times,serif" font-size="14.00">new</text>
<text text-anchor="start" x="-42.6104" y="-217.8" font-family="Times,serif" font-size="14.00">show</text>
<text text-anchor="start" x="-42.6104" y="-203.8" font-family="Times,serif" font-size="14.00">update</text>
<polyline fill="none" stroke="black" points="-50.6104,-197 62.6104,-197 "/>
<polyline fill="none" stroke="black" points="-50.6104,-173 62.6104,-173 "/>
<text text-anchor="start" x="-42.6104" y="-157.8" font-family="Times,serif" font-size="14.00">_layout</text>
<text text-anchor="start" x="-42.6104" y="-143.8" font-family="Times,serif" font-size="14.00">room_params</text>
</g>
<!-- TagsController -->
<g id="node6" class="node"><title>TagsController</title>
<path fill="none" stroke="black" d="M-174.891,-188C-174.891,-188 -99.1094,-188 -99.1094,-188 -93.1094,-188 -87.1094,-194 -87.1094,-200 -87.1094,-200 -87.1094,-378 -87.1094,-378 -87.1094,-384 -93.1094,-390 -99.1094,-390 -99.1094,-390 -174.891,-390 -174.891,-390 -180.891,-390 -186.891,-384 -186.891,-378 -186.891,-378 -186.891,-200 -186.891,-200 -186.891,-194 -180.891,-188 -174.891,-188"/>
<text text-anchor="middle" x="-137" y="-374.8" font-family="Times,serif" font-size="14.00">TagsController</text>
<polyline fill="none" stroke="black" points="-186.891,-368 -87.1094,-368 "/>
<text text-anchor="start" x="-178.891" y="-352.8" font-family="Times,serif" font-size="14.00">create</text>
<text text-anchor="start" x="-178.891" y="-338.8" font-family="Times,serif" font-size="14.00">destroy</text>
<text text-anchor="start" x="-178.891" y="-324.8" font-family="Times,serif" font-size="14.00">edit</text>
<text text-anchor="start" x="-178.891" y="-310.8" font-family="Times,serif" font-size="14.00">index</text>
<text text-anchor="start" x="-178.891" y="-296.8" font-family="Times,serif" font-size="14.00">new</text>
<text text-anchor="start" x="-178.891" y="-282.8" font-family="Times,serif" font-size="14.00">show</text>
<text text-anchor="start" x="-178.891" y="-268.8" font-family="Times,serif" font-size="14.00">update</text>
<polyline fill="none" stroke="black" points="-186.891,-262 -87.1094,-262 "/>
<polyline fill="none" stroke="black" points="-186.891,-238 -87.1094,-238 "/>
<text text-anchor="start" x="-178.891" y="-222.8" font-family="Times,serif" font-size="14.00">_layout</text>
<text text-anchor="start" x="-178.891" y="-208.8" font-family="Times,serif" font-size="14.00">set_tag</text>
<text text-anchor="start" x="-178.891" y="-194.8" font-family="Times,serif" font-size="14.00">tag_params</text>
</g>
<!-- UsersController -->
<g id="node7" class="node"><title>UsersController</title>
<path fill="none" stroke="black" d="M-191.714,-69C-191.714,-69 -110.286,-69 -110.286,-69 -104.286,-69 -98.2861,-75 -98.2861,-81 -98.2861,-81 -98.2861,-147 -98.2861,-147 -98.2861,-153 -104.286,-159 -110.286,-159 -110.286,-159 -191.714,-159 -191.714,-159 -197.714,-159 -203.714,-153 -203.714,-147 -203.714,-147 -203.714,-81 -203.714,-81 -203.714,-75 -197.714,-69 -191.714,-69"/>
<text text-anchor="middle" x="-151" y="-143.8" font-family="Times,serif" font-size="14.00">UsersController</text>
<polyline fill="none" stroke="black" points="-203.714,-137 -98.2861,-137 "/>
<text text-anchor="start" x="-195.714" y="-121.8" font-family="Times,serif" font-size="14.00">show</text>
<polyline fill="none" stroke="black" points="-203.714,-115 -98.2861,-115 "/>
<polyline fill="none" stroke="black" points="-203.714,-91 -98.2861,-91 "/>
<text text-anchor="start" x="-195.714" y="-75.8" font-family="Times,serif" font-size="14.00">_layout</text>
</g>
</g>
</svg>
