<?xml version="1.0" encoding="UTF-8" standalone="no"?>
<!DOCTYPE svg PUBLIC "-//W3C//DTD SVG 1.1//EN"
 "http://www.w3.org/Graphics/SVG/1.1/DTD/svg11.dtd">
<!-- Generated by graphviz version 2.38.0 (20140413.2041)
 -->
<!-- Title: models_diagram Pages: 1 -->
<svg width="638pt" height="326pt"
 viewBox="0.00 0.00 637.65 326.00" xmlns="http://www.w3.org/2000/svg" xmlns:xlink="http://www.w3.org/1999/xlink">
<g id="graph0" class="graph" transform="scale(1 1) rotate(0) translate(4 322)">
<title>models_diagram</title>
<polygon fill="none" stroke="none" points="-4,4 -4,-322 633.651,-322 633.651,4 -4,4"/>
<!-- _diagram_info -->
<g id="node1" class="node"><title>_diagram_info</title>
<text text-anchor="start" x="8" y="-303.6" font-family="Times,serif" font-size="13.00">Models diagram</text>
<text text-anchor="start" x="8" y="-290.6" font-family="Times,serif" font-size="13.00">Date: Mar 21 2016 &#45; 07:28</text>
<text text-anchor="start" x="8" y="-277.6" font-family="Times,serif" font-size="13.00">Migration version: 20160317180537</text>
<text text-anchor="start" x="8" y="-264.6" font-family="Times,serif" font-size="13.00">Generated by RailRoady 1.4.2</text>
<text text-anchor="start" x="8" y="-251.6" font-family="Times,serif" font-size="13.00">http://railroady.prestonlee.com</text>
</g>
<!-- Ability -->
<g id="node2" class="node"><title>Ability</title>
<polygon fill="none" stroke="black" points="281.358,-299.5 226.018,-299.5 226.018,-263.5 281.358,-263.5 281.358,-299.5"/>
<text text-anchor="middle" x="253.688" y="-277.3" font-family="Times,serif" font-size="14.00">Ability</text>
</g>
<!-- Answer -->
<g id="node3" class="node"><title>Answer</title>
<ellipse fill="none" stroke="black" cx="476.688" cy="-104" rx="37.7266" ry="18"/>
<text text-anchor="middle" x="476.688" y="-99.8" font-family="Times,serif" font-size="14.00">Answer</text>
</g>
<!-- AnswerTag -->
<g id="node4" class="node"><title>AnswerTag</title>
<ellipse fill="none" stroke="black" cx="392.688" cy="-18" rx="50.9901" ry="18"/>
<text text-anchor="middle" x="392.688" y="-13.8" font-family="Times,serif" font-size="14.00">AnswerTag</text>
</g>
<!-- Answer&#45;&gt;AnswerTag -->
<g id="edge1" class="edge"><title>Answer&#45;&gt;AnswerTag</title>
<path fill="none" stroke="#296285" d="M455.016,-81.3278C443.12,-69.4318 428.356,-54.6687 416.185,-42.4969"/>
<ellipse fill="none" stroke="#296285" cx="458.06" cy="-84.3718" rx="4.00002" ry="4.00002"/>
<polygon fill="#296285" stroke="#296285" points="416.061,-42.373 412.172,-32.1199 412.525,-38.8374 408.99,-35.3019 408.99,-35.3019 408.99,-35.3019 412.525,-38.8374 405.808,-38.4839 416.061,-42.373 416.061,-42.373"/>
</g>
<!-- ActsAsVotable::Vote -->
<g id="node11" class="node"><title>ActsAsVotable::Vote</title>
<ellipse fill="none" stroke="black" cx="545.688" cy="-18" rx="83.9272" ry="18"/>
<text text-anchor="middle" x="545.688" y="-13.8" font-family="Times,serif" font-size="14.00">ActsAsVotable::Vote</text>
</g>
<!-- Answer&#45;&gt;ActsAsVotable::Vote -->
<g id="edge2" class="edge"><title>Answer&#45;&gt;ActsAsVotable::Vote</title>
<path fill="none" stroke="#06b9b6" d="M473.003,-77.7116C473.02,-69.6022 474.406,-60.9345 478.812,-54 482.542,-48.1291 487.6,-43.1881 493.275,-39.0438"/>
<ellipse fill="none" stroke="#06b9b6" cx="473.211" cy="-81.8694" rx="4" ry="4"/>
<polygon fill="#06b9b6" stroke="#06b9b6" points="493.511,-38.8937 504.364,-37.3233 497.73,-36.21 501.948,-33.5264 501.948,-33.5264 501.948,-33.5264 497.73,-36.21 499.533,-29.7295 493.511,-38.8937 493.511,-38.8937"/>
<text text-anchor="middle" x="505.126" y="-56.8" font-family="Times,serif" font-size="14.00">votes_for</text>
</g>
<!-- Question -->
<g id="node5" class="node"><title>Question</title>
<ellipse fill="none" stroke="black" cx="331.688" cy="-190" rx="42.0784" ry="18"/>
<text text-anchor="middle" x="331.688" y="-185.8" font-family="Times,serif" font-size="14.00">Question</text>
</g>
<!-- Question&#45;&gt;Answer -->
<g id="edge3" class="edge"><title>Question&#45;&gt;Answer</title>
<path fill="none" stroke="#123438" d="M362.644,-171.067C386.839,-157.05 420.352,-137.636 444.785,-123.481"/>
<ellipse fill="none" stroke="#123438" cx="359.093" cy="-173.124" rx="4.00002" ry="4.00002"/>
<polygon fill="#123438" stroke="#123438" points="445.014,-123.349 455.923,-122.23 449.341,-120.843 453.667,-118.336 453.667,-118.336 453.667,-118.336 449.341,-120.843 451.411,-114.442 445.014,-123.349 445.014,-123.349"/>
</g>
<!-- Role -->
<g id="node6" class="node"><title>Role</title>
<ellipse fill="none" stroke="black" cx="432.688" cy="-281.5" rx="27" ry="18"/>
<text text-anchor="middle" x="432.688" y="-277.3" font-family="Times,serif" font-size="14.00">Role</text>
</g>
<!-- UserRole -->
<g id="node10" class="node"><title>UserRole</title>
<ellipse fill="none" stroke="black" cx="435.688" cy="-190" rx="43.5146" ry="18"/>
<text text-anchor="middle" x="435.688" y="-185.8" font-family="Times,serif" font-size="14.00">UserRole</text>
</g>
<!-- Role&#45;&gt;UserRole -->
<g id="edge4" class="edge"><title>Role&#45;&gt;UserRole</title>
<path fill="none" stroke="#02393e" d="M433.546,-254.903C433.93,-243.441 434.383,-229.914 434.774,-218.263"/>
<ellipse fill="none" stroke="#02393e" cx="433.4" cy="-259.246" rx="4" ry="4"/>
<polygon fill="#02393e" stroke="#02393e" points="434.776,-218.198 439.609,-208.354 434.944,-213.201 435.111,-208.204 435.111,-208.204 435.111,-208.204 434.944,-213.201 430.614,-208.053 434.776,-218.198 434.776,-218.198"/>
</g>
<!-- Room -->
<g id="node7" class="node"><title>Room</title>
<ellipse fill="none" stroke="black" cx="331.688" cy="-281.5" rx="31.9567" ry="18"/>
<text text-anchor="middle" x="331.688" y="-277.3" font-family="Times,serif" font-size="14.00">Room</text>
</g>
<!-- Room&#45;&gt;Question -->
<g id="edge5" class="edge"><title>Room&#45;&gt;Question</title>
<path fill="none" stroke="#6a4e22" d="M331.688,-254.903C331.688,-243.441 331.688,-229.914 331.688,-218.263"/>
<ellipse fill="none" stroke="#6a4e22" cx="331.688" cy="-259.243" rx="4" ry="4"/>
<polygon fill="#6a4e22" stroke="#6a4e22" points="331.688,-218.204 336.188,-208.203 331.688,-213.204 331.688,-208.204 331.688,-208.204 331.688,-208.204 331.688,-213.204 327.188,-208.204 331.688,-218.204 331.688,-218.204"/>
</g>
<!-- Tag -->
<g id="node8" class="node"><title>Tag</title>
<ellipse fill="none" stroke="black" cx="392.688" cy="-104" rx="27" ry="18"/>
<text text-anchor="middle" x="392.688" y="-99.8" font-family="Times,serif" font-size="14.00">Tag</text>
</g>
<!-- Tag&#45;&gt;AnswerTag -->
<g id="edge6" class="edge"><title>Tag&#45;&gt;AnswerTag</title>
<path fill="none" stroke="#d07a07" d="M392.688,-77.2567C392.688,-67.4415 392.688,-56.2256 392.688,-46.2729"/>
<ellipse fill="none" stroke="#d07a07" cx="392.688" cy="-81.5951" rx="4" ry="4"/>
<polygon fill="#d07a07" stroke="#d07a07" points="392.688,-46.0952 397.188,-36.0951 392.688,-41.0952 392.688,-36.0952 392.688,-36.0952 392.688,-36.0952 392.688,-41.0952 388.188,-36.0952 392.688,-46.0952 392.688,-46.0952"/>
</g>
<!-- User -->
<g id="node9" class="node"><title>User</title>
<ellipse fill="none" stroke="black" cx="505.688" cy="-281.5" rx="27" ry="18"/>
<text text-anchor="middle" x="505.688" y="-277.3" font-family="Times,serif" font-size="14.00">User</text>
</g>
<!-- User&#45;&gt;Answer -->
<g id="edge9" class="edge"><title>User&#45;&gt;Answer</title>
<path fill="none" stroke="#1e4a82" d="M501.916,-255.412C498.569,-233.405 493.481,-200.552 488.688,-172 486.479,-158.84 483.883,-144.254 481.673,-132.06"/>
<ellipse fill="none" stroke="#1e4a82" cx="502.552" cy="-259.612" rx="4.00001" ry="4.00001"/>
<polygon fill="#1e4a82" stroke="#1e4a82" points="481.643,-131.894 484.275,-121.248 480.745,-126.975 479.848,-122.056 479.848,-122.056 479.848,-122.056 480.745,-126.975 475.421,-122.863 481.643,-131.894 481.643,-131.894"/>
</g>
<!-- User&#45;&gt;Question -->
<g id="edge8" class="edge"><title>User&#45;&gt;Question</title>
<path fill="none" stroke="#21213e" d="M487.062,-259.915C481.519,-254.576 475.182,-249.163 468.688,-245 452.331,-234.514 407.102,-217.444 373.052,-205.304"/>
<ellipse fill="none" stroke="#21213e" cx="489.912" cy="-262.781" rx="4.00002" ry="4.00002"/>
<polygon fill="#21213e" stroke="#21213e" points="372.761,-205.201 364.835,-197.622 368.047,-203.533 363.334,-201.864 363.334,-201.864 363.334,-201.864 368.047,-203.533 361.832,-206.107 372.761,-205.201 372.761,-205.201"/>
</g>
<!-- User&#45;&gt;UserRole -->
<g id="edge7" class="edge"><title>User&#45;&gt;UserRole</title>
<path fill="none" stroke="#4abcc3" d="M491.178,-257.395C484.65,-247.472 476.636,-235.905 468.688,-226 465.584,-222.133 462.145,-218.176 458.693,-214.38"/>
<ellipse fill="none" stroke="#4abcc3" cx="493.47" cy="-260.927" rx="4.00002" ry="4.00002"/>
<polygon fill="#4abcc3" stroke="#4abcc3" points="458.523,-214.198 454.98,-203.821 455.108,-210.546 451.693,-206.894 451.693,-206.894 451.693,-206.894 455.108,-210.546 448.406,-209.968 458.523,-214.198 458.523,-214.198"/>
</g>
<!-- User&#45;&gt;ActsAsVotable::Vote -->
<g id="edge10" class="edge"><title>User&#45;&gt;ActsAsVotable::Vote</title>
<path fill="none" stroke="#a56fa0" d="M509.563,-255.163C517.12,-205.758 533.763,-96.9547 541.536,-46.1415"/>
<ellipse fill="none" stroke="#a56fa0" cx="508.917" cy="-259.388" rx="4.00001" ry="4.00001"/>
<polygon fill="#a56fa0" stroke="#a56fa0" points="541.541,-46.1059 547.502,-36.9014 542.298,-41.1634 543.054,-36.2209 543.054,-36.2209 543.054,-36.2209 542.298,-41.1634 538.605,-35.5405 541.541,-46.1059 541.541,-46.1059"/>
<text text-anchor="middle" x="541.464" y="-142.8" font-family="Times,serif" font-size="14.00">votes</text>
</g>
</g>
</svg>
