<?xml version="1.0" encoding="UTF-8" standalone="no"?>
<!DOCTYPE svg PUBLIC "-//W3C//DTD SVG 1.1//EN"
 "http://www.w3.org/Graphics/SVG/1.1/DTD/svg11.dtd">
<!-- Generated by graphviz version 2.38.0 (20140413.2041)
 -->
<!-- Title: models_diagram Pages: 1 -->
<svg width="1158pt" height="745pt"
 viewBox="0.00 0.00 1158.32 745.00" xmlns="http://www.w3.org/2000/svg" xmlns:xlink="http://www.w3.org/1999/xlink">
<g id="graph0" class="graph" transform="scale(1 1) rotate(0) translate(4 741)">
<title>models_diagram</title>
<polygon fill="none" stroke="none" points="-4,4 -4,-741 1154.32,-741 1154.32,4 -4,4"/>
<!-- _diagram_info -->
<g id="node1" class="node"><title>_diagram_info</title>
<text text-anchor="start" x="8" y="-638.6" font-family="Times,serif" font-size="13.00">Models diagram</text>
<text text-anchor="start" x="8" y="-625.6" font-family="Times,serif" font-size="13.00">Date: Mar 21 2016 &#45; 07:28</text>
<text text-anchor="start" x="8" y="-612.6" font-family="Times,serif" font-size="13.00">Migration version: 20160317180537</text>
<text text-anchor="start" x="8" y="-599.6" font-family="Times,serif" font-size="13.00">Generated by RailRoady 1.4.2</text>
<text text-anchor="start" x="8" y="-586.6" font-family="Times,serif" font-size="13.00">http://railroady.prestonlee.com</text>
</g>
<!-- Ability -->
<g id="node2" class="node"><title>Ability</title>
<polygon fill="none" stroke="black" points="225.853,-594.5 225.853,-638.5 281.522,-638.5 281.522,-594.5 225.853,-594.5"/>
<text text-anchor="middle" x="253.688" y="-623.3" font-family="Times,serif" font-size="14.00">Ability</text>
<polyline fill="none" stroke="black" points="225.853,-616.5 281.522,-616.5 "/>
<text text-anchor="middle" x="253.688" y="-601.3" font-family="Times,serif" font-size="14.00"> </text>
</g>
<!-- Answer -->
<g id="node3" class="node"><title>Answer</title>
<path fill="none" stroke="black" d="M745.825,-151.5C745.825,-151.5 969.55,-151.5 969.55,-151.5 975.55,-151.5 981.55,-157.5 981.55,-163.5 981.55,-163.5 981.55,-281.5 981.55,-281.5 981.55,-287.5 975.55,-293.5 969.55,-293.5 969.55,-293.5 745.825,-293.5 745.825,-293.5 739.825,-293.5 733.825,-287.5 733.825,-281.5 733.825,-281.5 733.825,-163.5 733.825,-163.5 733.825,-157.5 739.825,-151.5 745.825,-151.5"/>
<text text-anchor="middle" x="857.688" y="-278.3" font-family="Times,serif" font-size="14.00">Answer</text>
<polyline fill="none" stroke="black" points="733.825,-271.5 981.55,-271.5 "/>
<text text-anchor="start" x="741.825" y="-256.3" font-family="Times,serif" font-size="14.00">id :integer</text>
<text text-anchor="start" x="741.825" y="-242.3" font-family="Times,serif" font-size="14.00">question_id :integer</text>
<text text-anchor="start" x="741.825" y="-228.3" font-family="Times,serif" font-size="14.00">user_id :integer</text>
<text text-anchor="start" x="741.825" y="-214.3" font-family="Times,serif" font-size="14.00">content :text</text>
<text text-anchor="start" x="741.825" y="-200.3" font-family="Times,serif" font-size="14.00">is_question :boolean</text>
<text text-anchor="start" x="741.825" y="-186.3" font-family="Times,serif" font-size="14.00">is_accepted :boolean</text>
<text text-anchor="start" x="741.825" y="-172.3" font-family="Times,serif" font-size="14.00">created_at :timestamp without time zone</text>
<text text-anchor="start" x="741.825" y="-158.3" font-family="Times,serif" font-size="14.00">updated_at :timestamp without time zone</text>
</g>
<!-- AnswerTag -->
<g id="node4" class="node"><title>AnswerTag</title>
<path fill="none" stroke="black" d="M544.825,-0.5C544.825,-0.5 768.55,-0.5 768.55,-0.5 774.55,-0.5 780.55,-6.5 780.55,-12.5 780.55,-12.5 780.55,-88.5 780.55,-88.5 780.55,-94.5 774.55,-100.5 768.55,-100.5 768.55,-100.5 544.825,-100.5 544.825,-100.5 538.825,-100.5 532.825,-94.5 532.825,-88.5 532.825,-88.5 532.825,-12.5 532.825,-12.5 532.825,-6.5 538.825,-0.5 544.825,-0.5"/>
<text text-anchor="middle" x="656.688" y="-85.3" font-family="Times,serif" font-size="14.00">AnswerTag</text>
<polyline fill="none" stroke="black" points="532.825,-78.5 780.55,-78.5 "/>
<text text-anchor="start" x="540.825" y="-63.3" font-family="Times,serif" font-size="14.00">id :integer</text>
<text text-anchor="start" x="540.825" y="-49.3" font-family="Times,serif" font-size="14.00">answer_id :integer</text>
<text text-anchor="start" x="540.825" y="-35.3" font-family="Times,serif" font-size="14.00">tag_id :integer</text>
<text text-anchor="start" x="540.825" y="-21.3" font-family="Times,serif" font-size="14.00">created_at :timestamp without time zone</text>
<text text-anchor="start" x="540.825" y="-7.3" font-family="Times,serif" font-size="14.00">updated_at :timestamp without time zone</text>
</g>
<!-- Answer&#45;&gt;AnswerTag -->
<g id="edge1" class="edge"><title>Answer&#45;&gt;AnswerTag</title>
<path fill="none" stroke="#76f938" d="M768.618,-146.167C753.247,-133.167 737.515,-119.862 722.885,-107.488"/>
<ellipse fill="none" stroke="#76f938" cx="771.719" cy="-148.79" rx="4.00002" ry="4.00002"/>
<polygon fill="#76f938" stroke="#76f938" points="722.515,-107.175 717.786,-97.2815 718.698,-103.946 714.88,-100.717 714.88,-100.717 714.88,-100.717 718.698,-103.946 711.974,-104.153 722.515,-107.175 722.515,-107.175"/>
</g>
<!-- ActsAsVotable::Vote -->
<g id="node11" class="node"><title>ActsAsVotable::Vote</title>
<ellipse fill="none" stroke="black" cx="947.688" cy="-50.5" rx="83.9272" ry="18"/>
<text text-anchor="middle" x="947.688" y="-46.3" font-family="Times,serif" font-size="14.00">ActsAsVotable::Vote</text>
</g>
<!-- Answer&#45;&gt;ActsAsVotable::Vote -->
<g id="edge2" class="edge"><title>Answer&#45;&gt;ActsAsVotable::Vote</title>
<path fill="none" stroke="#650757" d="M898.603,-144.216C911.235,-120.356 924.299,-95.6782 933.771,-77.7867"/>
<ellipse fill="none" stroke="#650757" cx="896.685" cy="-147.838" rx="4.00002" ry="4.00002"/>
<polygon fill="#650757" stroke="#650757" points="933.959,-77.4312 942.615,-70.6989 936.299,-73.0123 938.638,-68.5933 938.638,-68.5933 938.638,-68.5933 936.299,-73.0123 934.661,-66.4878 933.959,-77.4312 933.959,-77.4312"/>
<text text-anchor="middle" x="937.126" y="-121.8" font-family="Times,serif" font-size="14.00">votes_for</text>
</g>
<!-- Question -->
<g id="node5" class="node"><title>Question</title>
<path fill="none" stroke="black" d="M441.825,-344.5C441.825,-344.5 665.55,-344.5 665.55,-344.5 671.55,-344.5 677.55,-350.5 677.55,-356.5 677.55,-356.5 677.55,-446.5 677.55,-446.5 677.55,-452.5 671.55,-458.5 665.55,-458.5 665.55,-458.5 441.825,-458.5 441.825,-458.5 435.825,-458.5 429.825,-452.5 429.825,-446.5 429.825,-446.5 429.825,-356.5 429.825,-356.5 429.825,-350.5 435.825,-344.5 441.825,-344.5"/>
<text text-anchor="middle" x="553.688" y="-443.3" font-family="Times,serif" font-size="14.00">Question</text>
<polyline fill="none" stroke="black" points="429.825,-436.5 677.55,-436.5 "/>
<text text-anchor="start" x="437.825" y="-421.3" font-family="Times,serif" font-size="14.00">id :integer</text>
<text text-anchor="start" x="437.825" y="-407.3" font-family="Times,serif" font-size="14.00">user_id :integer</text>
<text text-anchor="start" x="437.825" y="-393.3" font-family="Times,serif" font-size="14.00">room_id :integer</text>
<text text-anchor="start" x="437.825" y="-379.3" font-family="Times,serif" font-size="14.00">title :text</text>
<text text-anchor="start" x="437.825" y="-365.3" font-family="Times,serif" font-size="14.00">created_at :timestamp without time zone</text>
<text text-anchor="start" x="437.825" y="-351.3" font-family="Times,serif" font-size="14.00">updated_at :timestamp without time zone</text>
</g>
<!-- Question&#45;&gt;Answer -->
<g id="edge3" class="edge"><title>Question&#45;&gt;Answer</title>
<path fill="none" stroke="#bd63ea" d="M657.089,-340.296C680.052,-326.926 704.669,-312.593 728.519,-298.707"/>
<ellipse fill="none" stroke="#bd63ea" cx="653.332" cy="-342.483" rx="4.00002" ry="4.00002"/>
<polygon fill="#bd63ea" stroke="#bd63ea" points="728.624,-298.646 739.53,-297.503 732.945,-296.13 737.266,-293.614 737.266,-293.614 737.266,-293.614 732.945,-296.13 735.002,-289.725 728.624,-298.646 728.624,-298.646"/>
</g>
<!-- Role -->
<g id="node6" class="node"><title>Role</title>
<path fill="none" stroke="black" d="M577.825,-566.5C577.825,-566.5 801.55,-566.5 801.55,-566.5 807.55,-566.5 813.55,-572.5 813.55,-578.5 813.55,-578.5 813.55,-654.5 813.55,-654.5 813.55,-660.5 807.55,-666.5 801.55,-666.5 801.55,-666.5 577.825,-666.5 577.825,-666.5 571.825,-666.5 565.825,-660.5 565.825,-654.5 565.825,-654.5 565.825,-578.5 565.825,-578.5 565.825,-572.5 571.825,-566.5 577.825,-566.5"/>
<text text-anchor="middle" x="689.688" y="-651.3" font-family="Times,serif" font-size="14.00">Role</text>
<polyline fill="none" stroke="black" points="565.825,-644.5 813.55,-644.5 "/>
<text text-anchor="start" x="573.825" y="-629.3" font-family="Times,serif" font-size="14.00">id :integer</text>
<text text-anchor="start" x="573.825" y="-615.3" font-family="Times,serif" font-size="14.00">name :text</text>
<text text-anchor="start" x="573.825" y="-601.3" font-family="Times,serif" font-size="14.00">description :text</text>
<text text-anchor="start" x="573.825" y="-587.3" font-family="Times,serif" font-size="14.00">created_at :timestamp without time zone</text>
<text text-anchor="start" x="573.825" y="-573.3" font-family="Times,serif" font-size="14.00">updated_at :timestamp without time zone</text>
</g>
<!-- UserRole -->
<g id="node10" class="node"><title>UserRole</title>
<path fill="none" stroke="black" d="M707.825,-351.5C707.825,-351.5 931.55,-351.5 931.55,-351.5 937.55,-351.5 943.55,-357.5 943.55,-363.5 943.55,-363.5 943.55,-439.5 943.55,-439.5 943.55,-445.5 937.55,-451.5 931.55,-451.5 931.55,-451.5 707.825,-451.5 707.825,-451.5 701.825,-451.5 695.825,-445.5 695.825,-439.5 695.825,-439.5 695.825,-363.5 695.825,-363.5 695.825,-357.5 701.825,-351.5 707.825,-351.5"/>
<text text-anchor="middle" x="819.688" y="-436.3" font-family="Times,serif" font-size="14.00">UserRole</text>
<polyline fill="none" stroke="black" points="695.825,-429.5 943.55,-429.5 "/>
<text text-anchor="start" x="703.825" y="-414.3" font-family="Times,serif" font-size="14.00">id :integer</text>
<text text-anchor="start" x="703.825" y="-400.3" font-family="Times,serif" font-size="14.00">user_id :integer</text>
<text text-anchor="start" x="703.825" y="-386.3" font-family="Times,serif" font-size="14.00">role_id :integer</text>
<text text-anchor="start" x="703.825" y="-372.3" font-family="Times,serif" font-size="14.00">created_at :timestamp without time zone</text>
<text text-anchor="start" x="703.825" y="-358.3" font-family="Times,serif" font-size="14.00">updated_at :timestamp without time zone</text>
</g>
<!-- Role&#45;&gt;UserRole -->
<g id="edge4" class="edge"><title>Role&#45;&gt;UserRole</title>
<path fill="none" stroke="#1cb0e0" d="M723.946,-559.369C742.519,-528.939 765.441,-491.381 784.2,-460.645"/>
<ellipse fill="none" stroke="#1cb0e0" cx="721.759" cy="-562.952" rx="4.00002" ry="4.00002"/>
<polygon fill="#1cb0e0" stroke="#1cb0e0" points="784.416,-460.291 793.467,-454.1 787.021,-456.023 789.626,-451.755 789.626,-451.755 789.626,-451.755 787.021,-456.023 785.785,-449.411 784.416,-460.291 784.416,-460.291"/>
</g>
<!-- Room -->
<g id="node7" class="node"><title>Room</title>
<path fill="none" stroke="black" d="M311.825,-573.5C311.825,-573.5 535.55,-573.5 535.55,-573.5 541.55,-573.5 547.55,-579.5 547.55,-585.5 547.55,-585.5 547.55,-647.5 547.55,-647.5 547.55,-653.5 541.55,-659.5 535.55,-659.5 535.55,-659.5 311.825,-659.5 311.825,-659.5 305.825,-659.5 299.825,-653.5 299.825,-647.5 299.825,-647.5 299.825,-585.5 299.825,-585.5 299.825,-579.5 305.825,-573.5 311.825,-573.5"/>
<text text-anchor="middle" x="423.688" y="-644.3" font-family="Times,serif" font-size="14.00">Room</text>
<polyline fill="none" stroke="black" points="299.825,-637.5 547.55,-637.5 "/>
<text text-anchor="start" x="307.825" y="-622.3" font-family="Times,serif" font-size="14.00">id :integer</text>
<text text-anchor="start" x="307.825" y="-608.3" font-family="Times,serif" font-size="14.00">name :text</text>
<text text-anchor="start" x="307.825" y="-594.3" font-family="Times,serif" font-size="14.00">created_at :timestamp without time zone</text>
<text text-anchor="start" x="307.825" y="-580.3" font-family="Times,serif" font-size="14.00">updated_at :timestamp without time zone</text>
</g>
<!-- Room&#45;&gt;Question -->
<g id="edge5" class="edge"><title>Room&#45;&gt;Question</title>
<path fill="none" stroke="#590c82" d="M453.715,-566.301C471.652,-536.912 494.65,-499.232 514.064,-467.422"/>
<ellipse fill="none" stroke="#590c82" cx="451.455" cy="-570.004" rx="4.00002" ry="4.00002"/>
<polygon fill="#590c82" stroke="#590c82" points="514.228,-467.154 523.279,-460.962 516.833,-462.886 519.437,-458.618 519.437,-458.618 519.437,-458.618 516.833,-462.886 515.596,-456.273 514.228,-467.154 514.228,-467.154"/>
</g>
<!-- Tag -->
<g id="node8" class="node"><title>Tag</title>
<path fill="none" stroke="black" d="M479.825,-179.5C479.825,-179.5 703.55,-179.5 703.55,-179.5 709.55,-179.5 715.55,-185.5 715.55,-191.5 715.55,-191.5 715.55,-253.5 715.55,-253.5 715.55,-259.5 709.55,-265.5 703.55,-265.5 703.55,-265.5 479.825,-265.5 479.825,-265.5 473.825,-265.5 467.825,-259.5 467.825,-253.5 467.825,-253.5 467.825,-191.5 467.825,-191.5 467.825,-185.5 473.825,-179.5 479.825,-179.5"/>
<text text-anchor="middle" x="591.688" y="-250.3" font-family="Times,serif" font-size="14.00">Tag</text>
<polyline fill="none" stroke="black" points="467.825,-243.5 715.55,-243.5 "/>
<text text-anchor="start" x="475.825" y="-228.3" font-family="Times,serif" font-size="14.00">id :integer</text>
<text text-anchor="start" x="475.825" y="-214.3" font-family="Times,serif" font-size="14.00">name :text</text>
<text text-anchor="start" x="475.825" y="-200.3" font-family="Times,serif" font-size="14.00">created_at :timestamp without time zone</text>
<text text-anchor="start" x="475.825" y="-186.3" font-family="Times,serif" font-size="14.00">updated_at :timestamp without time zone</text>
</g>
<!-- Tag&#45;&gt;AnswerTag -->
<g id="edge6" class="edge"><title>Tag&#45;&gt;AnswerTag</title>
<path fill="none" stroke="#600e91" d="M610.719,-171.726C618.12,-152.37 626.653,-130.053 634.342,-109.942"/>
<ellipse fill="none" stroke="#600e91" cx="609.184" cy="-175.741" rx="4.00001" ry="4.00001"/>
<polygon fill="#600e91" stroke="#600e91" points="634.353,-109.914 642.128,-102.18 636.139,-105.243 637.925,-100.573 637.925,-100.573 637.925,-100.573 636.139,-105.243 633.721,-98.9659 634.353,-109.914 634.353,-109.914"/>
</g>
<!-- User -->
<g id="node9" class="node"><title>User</title>
<path fill="none" stroke="black" d="M843.053,-496.5C843.053,-496.5 1138.32,-496.5 1138.32,-496.5 1144.32,-496.5 1150.32,-502.5 1150.32,-508.5 1150.32,-508.5 1150.32,-724.5 1150.32,-724.5 1150.32,-730.5 1144.32,-736.5 1138.32,-736.5 1138.32,-736.5 843.053,-736.5 843.053,-736.5 837.053,-736.5 831.053,-730.5 831.053,-724.5 831.053,-724.5 831.053,-508.5 831.053,-508.5 831.053,-502.5 837.053,-496.5 843.053,-496.5"/>
<text text-anchor="middle" x="990.688" y="-721.3" font-family="Times,serif" font-size="14.00">User</text>
<polyline fill="none" stroke="black" points="831.053,-714.5 1150.32,-714.5 "/>
<text text-anchor="start" x="839.053" y="-699.3" font-family="Times,serif" font-size="14.00">id :integer</text>
<text text-anchor="start" x="839.053" y="-685.3" font-family="Times,serif" font-size="14.00">email :character varying</text>
<text text-anchor="start" x="839.053" y="-671.3" font-family="Times,serif" font-size="14.00">encrypted_password :character varying</text>
<text text-anchor="start" x="839.053" y="-657.3" font-family="Times,serif" font-size="14.00">reset_password_token :character varying</text>
<text text-anchor="start" x="839.053" y="-643.3" font-family="Times,serif" font-size="14.00">reset_password_sent_at :timestamp without time zone</text>
<text text-anchor="start" x="839.053" y="-629.3" font-family="Times,serif" font-size="14.00">remember_created_at :timestamp without time zone</text>
<text text-anchor="start" x="839.053" y="-615.3" font-family="Times,serif" font-size="14.00">sign_in_count :integer</text>
<text text-anchor="start" x="839.053" y="-601.3" font-family="Times,serif" font-size="14.00">current_sign_in_at :timestamp without time zone</text>
<text text-anchor="start" x="839.053" y="-587.3" font-family="Times,serif" font-size="14.00">last_sign_in_at :timestamp without time zone</text>
<text text-anchor="start" x="839.053" y="-573.3" font-family="Times,serif" font-size="14.00">current_sign_in_ip :character varying</text>
<text text-anchor="start" x="839.053" y="-559.3" font-family="Times,serif" font-size="14.00">last_sign_in_ip :character varying</text>
<text text-anchor="start" x="839.053" y="-545.3" font-family="Times,serif" font-size="14.00">created_at :timestamp without time zone</text>
<text text-anchor="start" x="839.053" y="-531.3" font-family="Times,serif" font-size="14.00">updated_at :timestamp without time zone</text>
<text text-anchor="start" x="839.053" y="-517.3" font-family="Times,serif" font-size="14.00">username :text</text>
<text text-anchor="start" x="839.053" y="-503.3" font-family="Times,serif" font-size="14.00">reputation :integer</text>
</g>
<!-- User&#45;&gt;Answer -->
<g id="edge9" class="edge"><title>User&#45;&gt;Answer</title>
<path fill="none" stroke="#e24cd5" d="M986.747,-488.208C981.755,-441.402 971.848,-388.899 952.688,-344 946.497,-329.492 938.087,-315.249 928.817,-301.924"/>
<ellipse fill="none" stroke="#e24cd5" cx="987.162" cy="-492.292" rx="4" ry="4"/>
<polygon fill="#e24cd5" stroke="#e24cd5" points="928.781,-301.874 926.601,-291.127 925.863,-297.813 922.946,-293.753 922.946,-293.753 922.946,-293.753 925.863,-297.813 919.291,-296.378 928.781,-301.874 928.781,-301.874"/>
</g>
<!-- User&#45;&gt;Question -->
<g id="edge8" class="edge"><title>User&#45;&gt;Question</title>
<path fill="none" stroke="#c7d187" d="M823.719,-496.49C823.375,-496.326 823.032,-496.163 822.688,-496 768.83,-470.516 747.933,-478.598 687.375,-459.057"/>
<ellipse fill="none" stroke="#c7d187" cx="827.352" cy="-498.273" rx="4.00002" ry="4.00002"/>
<polygon fill="#c7d187" stroke="#c7d187" points="687.206,-459.001 679.156,-451.555 682.466,-457.411 677.725,-455.821 677.725,-455.821 677.725,-455.821 682.466,-457.411 676.295,-460.088 687.206,-459.001 687.206,-459.001"/>
</g>
<!-- User&#45;&gt;UserRole -->
<g id="edge7" class="edge"><title>User&#45;&gt;UserRole</title>
<path fill="none" stroke="#edf3de" d="M889.68,-489.684C881.431,-479.408 873.381,-469.381 865.852,-460.002"/>
<ellipse fill="none" stroke="#edf3de" cx="892.436" cy="-493.116" rx="4.00002" ry="4.00002"/>
<polygon fill="#edf3de" stroke="#edf3de" points="865.637,-459.735 862.886,-449.12 862.507,-455.836 859.377,-451.937 859.377,-451.937 859.377,-451.937 862.507,-455.836 855.868,-454.755 865.637,-459.735 865.637,-459.735"/>
</g>
<!-- User&#45;&gt;ActsAsVotable::Vote -->
<g id="edge10" class="edge"><title>User&#45;&gt;ActsAsVotable::Vote</title>
<path fill="none" stroke="#751f04" d="M1004.98,-488.021C1012.11,-393.828 1014.76,-263.043 990.688,-151 985.049,-124.753 972.342,-96.861 962.195,-77.3075"/>
<ellipse fill="none" stroke="#751f04" cx="1004.66" cy="-492.175" rx="4" ry="4"/>
<polygon fill="#751f04" stroke="#751f04" points="962.163,-77.2479 961.433,-66.3064 959.813,-72.835 957.462,-68.4221 957.462,-68.4221 957.462,-68.4221 959.813,-72.835 953.49,-70.5378 962.163,-77.2479 962.163,-77.2479"/>
<text text-anchor="middle" x="1023.46" y="-314.8" font-family="Times,serif" font-size="14.00">votes</text>
</g>
</g>
</svg>
